<?xml version="1.0" encoding="utf-8"?>
<!-- Generator: Adobe Illustrator 22.0.1, SVG Export Plug-In . SVG Version: 6.00 Build 0)  -->
<svg version="1.1" id="Layer_1" xmlns="http://www.w3.org/2000/svg" xmlns:xlink="http://www.w3.org/1999/xlink" x="0px" y="0px"
	 viewBox="0 0 132.7 173.7" style="enable-background:new 0 0 132.7 173.7;" xml:space="preserve">
<style type="text/css">
	.st0{clip-path:url(#SVGID_2_);}
	.st1{fill:#FFFFFF;}
	.st2{fill:#80BAE0;}
	.st3{fill:#7D7979;}
</style>
<title>logo-rident-2</title>
<g>
	<defs>
		<rect id="SVGID_1_" x="-9.3" y="8.1" width="144.6" height="146.4"/>
	</defs>
	<clipPath id="SVGID_2_">
		<use xlink:href="#SVGID_1_"  style="overflow:visible;"/>
	</clipPath>
	<g class="st0">
		<path id="_Path_" class="st1" d="M17.8,173.6c0,0.1,6.5-1,6.8-1.1c8-2.3,13.4-8.3,18.9-14.2c6.6-7.1,12-15,17.8-22.7
			c4.7-6.2,9.8-13.9,17.5-16.5c10.1-3.5,15.2,7.8,17.3,15.6c2.7,9.9,5.4,19.9,8.2,29.9c0.1,0.4,0.3,0.8,0.3,1.2
			c0,0,34.9-35.2,26.9-110.4S70.1-2.3,66.2,15.2c-1.1,5.1-4.8,9.4-10.2,9.9c-3.9,0.3-7.7-1.7-11.4-2.8c-4.8-1.3-9.9-1.6-14.8-0.7
			c-3.7,0.5-7.4,1.5-10.9,2.9C10.6,27.8,4.3,34.7,1.7,43.2c-1.4,4.7-1.9,9.6-1.5,14.5c1.5,15.7,7.6,27.6,15.1,41.1
			c6.2,11.1,7.4,21.8,6.8,34.3C21.3,146.7,19.9,160.2,17.8,173.6z"/>
	</g>
</g>
<path class="st2" d="M37.6,83.3c0.8,0.3,1.6,0.5,2.4,0.8c2,0.6,3.9,1.2,5.9,1.8c3.5,1,6.9,2,10.4,3c2.6,0.7,5.2,1.4,7.8,2
	c1.5,0.3,3,0.6,4.5,0.9c1.5,0.2,3.1,0.3,4.6,0.3c0.8,0,1.7-0.1,2.5-0.2c1.1-0.1,2.2-0.2,3.2-0.4s2.3-0.4,3.4-0.6
	c1.7-0.3,3.3-0.6,5-1c4.2-0.9,8.3-1.9,12.4-3s8.1-2.2,12.1-3.4c0.3-0.1,0.6-0.2,1-0.3c0.1,0,0.2-0.1,0.2,0s-0.1,0.2-0.2,0.2
	c-0.9,0.4-1.7,0.7-2.6,1.1c-2.6,1-5.2,2-7.8,2.9c-3.2,1.1-6.5,2.1-9.8,3c-2.4,0.7-4.8,1.3-7.2,1.8c-1.8,0.4-3.6,0.7-5.3,1
	c-1.3,0.2-2.5,0.4-3.8,0.5c-0.9,0.1-1.9,0.2-2.8,0.2c-0.6,0-1.2,0-1.8,0c-1.2,0-2.5-0.2-3.7-0.4c-3.2-0.6-6.3-1.4-9.4-2.3
	c-1.9-0.6-3.7-1.1-5.6-1.7c-4.7-1.5-9.4-3.3-14-5.1c-0.8-0.3-1.6-0.7-2.4-1c0-0.2,0.1-0.2,0.2-0.2C37.2,83.2,37.4,83.3,37.6,83.3z"
	/>
<path class="st2" d="M52.8,51.1c-1,0.3-2.1,0.7-3.1,1.1c-1.2,0.5-2.3,1.2-3.2,2.1c-0.9,0.9-1.5,2.1-1.6,3.3
	c-0.1,1.3,0.1,2.6,0.5,3.8c0.4,1.2,1,2.4,1.6,3.5c1,1.9,1.8,4,2.2,6.1c0.3,1.7,0.5,3.4,0.4,5.1c-0.1,2.1-0.5,4.2-1.1,6.2
	c-0.1,0.2,0,0.3,0.2,0.4c0.2,0.1,0.4,0.2,0.6,0.3c0.2,0.1,0.2,0.1,0.4-0.1l4.1-4.4l2.6-2.7l4.3-4.5c0.2-0.2,0.2-0.2,0.4,0
	c0.2,0.2,0.4,0.5,0.6,0.7c0.1,0.1,0.1,0.2,0,0.3c-1.1,0.6-2,1.3-2.8,2.2c-0.8,0.9-1.6,1.9-2.3,2.9c-0.8,1.2-1.7,2.4-2.6,3.4
	c-1.6,2-3.9,3.4-6.4,4c-0.3,0.1-0.3,0-0.2-0.2c0-0.5,0.1-1,0.1-1.5c0.1-1.3,0.2-2.6,0.4-3.9c0.1-0.7,0.2-1.4,0.3-2.1
	c0.1-1,0.1-2,0.1-3c-0.1-1.8-0.5-3.6-1.2-5.2c-0.4-0.9-0.9-1.7-1.5-2.6c-0.7-1.3-1.3-2.7-1.6-4.2c-0.3-1.2-0.5-2.4-0.6-3.6
	c-0.3-3,1.4-5.7,4.2-6.7c1.2-0.5,2.4-0.7,3.6-0.8C51.8,51.1,52.3,51.1,52.8,51.1z"/>
<path class="st2" d="M64.2,75l1.6,2.1c0.4,0.5,0.8,1.1,1.2,1.6c0.1,0.2,0.2,0.1,0.3,0c0.6-0.8,1.2-1.7,1.6-2.6c1-2,1.6-4.1,2-6.3
	c0.2-1.3,0.4-2.5,0.4-3.8c0.1-1.1,0.1-2.1,0-3.2c-0.1-2.8-0.7-5.6-1.7-8.3c-0.6-1.6-1.5-3-2.6-4.2c-0.7-0.6-1.5-1.1-2.3-1.3
	c-1.2-0.4-2.4-0.7-3.6-1.1c-0.3-0.1-0.5-0.2-0.8-0.3c0.3-0.3,0.7-0.6,1.2-0.8c1.3-0.6,2.7-0.6,4,0c1.5,0.6,2.8,1.6,3.8,2.8
	c1.4,1.7,2.2,3.6,2.6,5.7c0.2,1.1,0.4,2.1,0.4,3.2c0.1,1,0.2,2,0.2,2.9c0.1,0.8,0,1.6,0.1,2.3c0.1,0.8,0,1.8-0.1,2.7
	c-0.2,2.5-0.7,5-1.4,7.4c-1,3-2.4,5.9-4.2,8.5c-0.1,0.2-0.2,0.3-0.4,0.5s-0.1,0.2-0.2,0.2S66.4,83,66.3,83l-0.9-3.4l-1.2-4.4
	C64.2,75.1,64.2,75.1,64.2,75z"/>
<path class="st3" d="M107.2,81.3V61c0-0.1,0-0.1,0-0.2c0-0.2,0.1-0.4,0.3-0.4s0.3,0.2,0.3,0.4v21.7c0,0.2,0,0.3-0.2,0.4
	s-0.3-0.1-0.3-0.2c-0.3-0.6-0.6-1.3-0.8-1.9l-4.6-10.7c-1.1-2.6-2.2-5.2-3.3-7.8c0-0.1,0-0.2-0.2-0.2v20.3c0,0.1,0,0.3-0.1,0.4
	C98.3,82.9,98.1,83,98,83c-0.1,0-0.2-0.1-0.2-0.2c0-0.1,0-0.1,0-0.2c0-7.2,0-14.4,0-21.6c0-0.1,0-0.2,0-0.3c0.1-0.1,0.2-0.2,0.4-0.1
	c0,0,0.1,0.1,0.1,0.1c0.1,0.2,0.2,0.5,0.3,0.7l2.3,5.3c1.5,3.5,3,7,4.5,10.6c0.6,1.3,1.1,2.7,1.7,4
	C107.1,81.2,107.2,81.2,107.2,81.3z"/>
<path class="st3" d="M26,72.4l2.3,2.8l3.7,4.6l2.3,2.8c0.2,0.3,0.3,0.5,0.1,0.6c-0.2,0.1-0.4-0.1-0.5-0.2c-1.2-1.3-2.3-2.7-3.4-4.1
	c-1-1.2-2-2.4-3-3.6c-0.7-0.9-1.5-1.8-2.2-2.7c-0.1-0.1-0.1-0.1-0.2-0.2c-0.1,0.1,0,0.2,0,0.2c0,2.5,0,5.1,0,7.6c0,0.9,0,1.8,0,2.7
	c0,0.2-0.1,0.3-0.2,0.3s-0.3-0.1-0.3-0.3c0-0.1,0-0.1,0-0.2V61.4c0-0.4,0.1-0.5,0.5-0.5c2.1,0,4.2,0.4,6.1,1.3c1,0.4,1.9,1.1,2.6,2
	c0.6,0.8,0.8,1.8,0.7,2.8c-0.1,1.5-1,2.8-2.3,3.6c-1.1,0.7-2.3,1.2-3.5,1.6c-0.8,0.3-1.7,0.4-2.6,0.5L26,72.4z M25.2,66.6v5
	c0,0.2,0,0.2,0.2,0.2c0.5,0,1,0,1.5-0.1c1.2-0.2,2.3-0.5,3.5-1c1.1-0.4,2.1-1.1,2.9-2.1c1.2-1.5,1-3.7-0.5-5c-0.6-0.6-1.4-1-2.2-1.3
	c-1.2-0.4-2.4-0.8-3.6-0.9c-0.5-0.1-1.1-0.1-1.6-0.2c-0.2,0-0.2,0.1-0.2,0.2V66.6z"/>
<path class="st3" d="M74.2,71.7V60.9c0-0.4,0-0.4,0.4-0.4c1.8,0.1,3.5,0.6,5,1.6c2.1,1.4,3.6,3.5,4.2,6c0.4,1.5,0.5,3.1,0.4,4.7
	c0,1.7-0.4,3.3-1.1,4.9c-1,2-2.6,3.5-4.6,4.4c-1,0.5-2.1,0.8-3.2,0.9c-0.2,0-0.4,0-0.6,0c-0.4,0-0.4,0-0.4-0.4L74.2,71.7z
	 M74.7,71.7v10.1c0,0.1,0,0.3,0,0.4s0,0.2,0.2,0.2c0.3,0,0.5,0,0.8-0.1c0.8-0.2,1.5-0.4,2.3-0.7c2.1-0.9,3.8-2.5,4.6-4.6
	c0.5-1.3,0.9-2.6,0.9-4c0.1-1.8,0-3.6-0.6-5.4c-0.5-2-1.7-3.6-3.4-4.8c-1.4-0.9-2.9-1.5-4.6-1.7c-0.2,0-0.3,0-0.3,0.3
	C74.7,64.8,74.7,68.2,74.7,71.7L74.7,71.7z"/>
<path class="st3" d="M86.5,66.2c0,1.7,0,3.3,0,5c0,0.2,0.1,0.3,0.3,0.3h6.6c0.2,0,0.2,0.1,0.2,0.2c0,0.1,0,0.2-0.2,0.2c0,0,0,0,0,0
	c-0.1,0-0.2,0-0.3,0h-6.3c-0.2,0-0.3,0.1-0.3,0.3c0,3.3,0,6.6,0,9.9c0,0.2,0.1,0.3,0.3,0.3h8.7c0.2,0,0.4,0,0.4,0.2
	c0,0.1-0.1,0.3-0.2,0.3c0,0,0,0,0,0c-0.1,0-0.1,0-0.2,0h-9.1c-0.4,0-0.4-0.1-0.4-0.5V60.9c0-0.4,0.1-0.5,0.4-0.5c3,0,6,0,9,0
	c0.2,0,0.4,0,0.4,0.3c0,0.1-0.1,0.2-0.2,0.3c0,0,0,0,0,0h-8.8c-0.2,0-0.3,0-0.3,0.3C86.5,62.9,86.5,64.6,86.5,66.2z"/>
<path class="st3" d="M114.8,71.9v10.6c0,0.1,0,0.2,0,0.2c0,0.1-0.1,0.2-0.2,0.2c0,0,0,0,0,0c-0.1,0-0.2,0-0.3-0.2c0-0.1,0-0.2,0-0.3
	V61.3c0-0.3-0.1-0.3-0.3-0.3c-1.3,0-2.7,0-4,0c-0.1,0-0.2,0-0.2,0c-0.1,0-0.2-0.1-0.2-0.3c0-0.1,0.1-0.2,0.2-0.2c0.1,0,0.2,0,0.3,0
	h9.1c0.2,0,0.3,0.1,0.3,0.3s-0.2,0.2-0.4,0.2h-3.3c-0.3,0-0.5,0-0.8,0s-0.3,0-0.3,0.3c0,0.5,0,1,0,1.4L114.8,71.9z"/>
<path class="st3" d="M37.6,83.3c-0.2,0-0.4-0.1-0.6-0.2c-0.2-0.1-0.2,0-0.2,0.2c-0.2,0-0.3-0.1-0.2-0.3c0-0.2,0.2-0.2,0.3-0.2
	c0.5,0,1,0,1.5,0c0.2,0,0.3,0,0.3-0.2c0-7,0-13.9,0-20.9c0-0.2-0.1-0.2-0.3-0.2c-0.5,0-1,0-1.5,0c-0.2,0-0.3,0-0.3-0.3
	s0.2-0.3,0.3-0.3h4c0.2,0,0.3,0.1,0.3,0.3c0,0.2-0.2,0.2-0.3,0.2c-0.5,0-1,0-1.5,0c-0.2,0-0.2,0-0.2,0.2c0,1.7,0,3.3,0,5v15.9
	c0,0.2,0,0.3,0.3,0.3c0.5,0,1,0,1.4,0c0.1,0,0.2,0,0.3,0.1c0.1,0.1,0.1,0.2,0.1,0.3c-0.1,0.1-0.2,0.2-0.3,0.2c-0.5,0-0.9,0-1.4,0
	C38.8,83.3,38.2,83.3,37.6,83.3z"/>
<path class="st2" d="M30.3,98.1h-1.8l-0.7,5.5h-1l0.7-5.5h-1.8l0.1-0.8h4.6L30.3,98.1z"/>
<path class="st2" d="M31.1,103.7c-0.2,0-0.5,0-0.7-0.1c-0.2-0.1-0.4-0.2-0.5-0.4c-0.2-0.2-0.3-0.4-0.4-0.6c-0.1-0.3-0.1-0.5-0.1-0.8
	c0-0.4,0.1-0.7,0.2-1.1c0.1-0.3,0.3-0.6,0.5-0.9c0.2-0.2,0.5-0.4,0.7-0.6c0.3-0.1,0.6-0.2,0.9-0.2c0.2,0,0.5,0,0.7,0.1
	c0.2,0.1,0.4,0.2,0.5,0.4c0.2,0.2,0.3,0.4,0.3,0.6c0.1,0.3,0.1,0.5,0.1,0.8c0,0.2,0,0.5-0.1,0.7c-0.1,0.2-0.1,0.4-0.2,0.7
	c-0.1,0.2-0.2,0.4-0.4,0.6c-0.1,0.2-0.3,0.3-0.5,0.4C31.9,103.5,31.5,103.7,31.1,103.7L31.1,103.7z M31.2,102.9
	c0.2,0,0.4-0.1,0.5-0.2c0.2-0.1,0.3-0.3,0.4-0.4c0.1-0.2,0.2-0.4,0.3-0.6c0.1-0.2,0.1-0.5,0.1-0.8c0-0.3-0.1-0.6-0.2-0.9
	c-0.2-0.2-0.4-0.3-0.6-0.3c-0.2,0-0.4,0.1-0.5,0.2c-0.2,0.1-0.3,0.3-0.4,0.4c-0.1,0.2-0.2,0.4-0.3,0.6c-0.1,0.2-0.1,0.5-0.1,0.8
	C30.3,102.5,30.6,102.9,31.2,102.9z"/>
<path class="st2" d="M38.4,97.1l-0.8,6.5h-0.5c-0.1,0-0.2,0-0.2-0.1c0-0.1-0.1-0.1-0.1-0.2l0.1-0.8c-0.1,0.2-0.2,0.3-0.3,0.5
	c-0.1,0.1-0.3,0.3-0.4,0.4c-0.1,0.1-0.3,0.2-0.4,0.2c-0.1,0.1-0.3,0.1-0.5,0.1c-0.3,0-0.7-0.1-0.9-0.4c-0.2-0.4-0.4-0.8-0.3-1.2
	c0-0.2,0-0.5,0.1-0.7c0-0.2,0.1-0.5,0.2-0.7c0.2-0.4,0.4-0.8,0.8-1.1c0.2-0.1,0.3-0.2,0.5-0.3c0.2-0.1,0.4-0.1,0.6-0.1
	c0.2,0,0.4,0,0.6,0.1c0.2,0.1,0.3,0.2,0.4,0.3l0.3-2.4L38.4,97.1z M37.1,100.1c-0.1-0.1-0.2-0.2-0.4-0.3c-0.1-0.1-0.3-0.1-0.4-0.1
	c-0.2,0-0.4,0.1-0.6,0.2c-0.2,0.1-0.3,0.3-0.4,0.5c-0.1,0.2-0.2,0.4-0.3,0.7c-0.1,0.2-0.1,0.5-0.1,0.8c0,0.3,0,0.5,0.2,0.8
	c0.1,0.2,0.3,0.3,0.5,0.2c0.1,0,0.3,0,0.4-0.1c0.1-0.1,0.3-0.2,0.4-0.3c0.1-0.2,0.2-0.3,0.3-0.5c0.1-0.2,0.2-0.4,0.3-0.7L37.1,100.1
	z"/>
<path class="st2" d="M40.4,103.7c-0.2,0-0.5,0-0.7-0.1c-0.2-0.1-0.4-0.2-0.5-0.4c-0.2-0.2-0.3-0.4-0.3-0.6c-0.1-0.3-0.1-0.5-0.1-0.8
	c0-0.4,0.1-0.7,0.2-1.1c0.1-0.3,0.3-0.6,0.5-0.9c0.2-0.2,0.5-0.4,0.7-0.6c0.3-0.1,0.6-0.2,0.9-0.2c0.2,0,0.5,0,0.7,0.1
	c0.2,0.1,0.4,0.2,0.5,0.4c0.2,0.2,0.3,0.4,0.3,0.6c0.1,0.3,0.1,0.5,0.1,0.8c0,0.2,0,0.5-0.1,0.7c-0.1,0.2-0.1,0.4-0.2,0.7
	c-0.1,0.2-0.2,0.4-0.4,0.6c-0.1,0.2-0.3,0.3-0.5,0.4c-0.2,0.1-0.4,0.2-0.6,0.3C40.8,103.6,40.6,103.7,40.4,103.7z M40.4,102.9
	c0.2,0,0.4-0.1,0.5-0.2c0.2-0.1,0.3-0.3,0.4-0.4c0.1-0.2,0.2-0.4,0.3-0.6c0.1-0.2,0.1-0.5,0.1-0.8c0-0.3-0.1-0.6-0.2-0.9
	c-0.2-0.2-0.4-0.3-0.6-0.3c-0.2,0-0.4,0.1-0.5,0.2c-0.2,0.1-0.3,0.3-0.4,0.4c-0.1,0.2-0.2,0.4-0.3,0.6c-0.1,0.2-0.1,0.5-0.1,0.8
	C39.6,102.5,39.9,102.9,40.4,102.9z"/>
<path class="st2" d="M46.2,99.9C46.2,99.9,46.1,100,46.2,99.9C46.1,100,46,100,46,100c-0.1,0-0.1,0-0.2-0.1l-0.2-0.1
	c-0.1,0-0.2-0.1-0.2-0.1c-0.1,0-0.2-0.1-0.3-0.1c-0.1,0-0.2,0-0.3,0.1c-0.1,0-0.2,0.1-0.2,0.1c-0.1,0.1-0.1,0.1-0.2,0.2
	c0,0.1-0.1,0.2-0.1,0.2c0,0.1,0,0.2,0.1,0.2c0.1,0.1,0.1,0.1,0.2,0.2l0.3,0.1l0.3,0.1c0.1,0,0.2,0.1,0.3,0.2
	c0.1,0.1,0.2,0.1,0.3,0.2c0.2,0.2,0.3,0.4,0.3,0.7c0,0.2,0,0.4-0.1,0.6c-0.1,0.2-0.2,0.4-0.4,0.5c-0.2,0.2-0.4,0.3-0.6,0.3
	c-0.2,0.1-0.5,0.1-0.7,0.1c-0.3,0-0.5,0-0.8-0.2c-0.2-0.1-0.4-0.2-0.5-0.4l0.2-0.4c0,0,0.1-0.1,0.1-0.1c0,0,0.1,0,0.1,0
	c0.1,0,0.1,0,0.2,0.1l0.2,0.1c0.1,0.1,0.2,0.1,0.2,0.1c0.1,0,0.3,0.1,0.4,0.1c0.1,0,0.2,0,0.3,0c0.1,0,0.2-0.1,0.3-0.2
	c0.1-0.1,0.1-0.1,0.2-0.2c0-0.1,0.1-0.2,0.1-0.3c0-0.1,0-0.2-0.1-0.3c-0.1-0.1-0.1-0.1-0.2-0.2c-0.1-0.1-0.2-0.2-0.3-0.2
	c-0.1,0-0.2-0.1-0.3-0.1c-0.1,0-0.2-0.1-0.3-0.1c-0.1,0-0.2-0.1-0.3-0.2c-0.1-0.1-0.2-0.2-0.2-0.3c-0.1-0.1-0.1-0.3-0.1-0.4
	c0-0.2,0-0.4,0.1-0.6c0.1-0.2,0.2-0.4,0.3-0.5c0.1-0.1,0.3-0.3,0.5-0.3c0.2-0.1,0.5-0.1,0.7-0.1c0.5,0,0.9,0.2,1.3,0.5L46.2,99.9z"
	/>
<path class="st2" d="M48.8,103.6l0.5-4.5h0.5c0.1,0,0.2,0,0.2,0.1c0.1,0.1,0.1,0.1,0.1,0.2v0.6c0.2-0.3,0.4-0.6,0.7-0.8
	c0.2-0.2,0.5-0.2,0.8-0.2c0.3,0,0.5,0.1,0.7,0.3c0.2,0.2,0.3,0.5,0.2,0.8c0.2-0.3,0.4-0.6,0.7-0.9c0.3-0.2,0.6-0.3,0.9-0.3
	c0.3,0,0.7,0.1,0.8,0.4c0.2,0.4,0.2,0.8,0.2,1.3l-0.4,2.8h-0.9l0.3-2.8c0-0.1,0-0.3,0-0.4c0-0.1,0-0.2-0.1-0.3
	c0-0.1-0.1-0.1-0.1-0.2c-0.1,0-0.2-0.1-0.2-0.1c-0.1,0-0.2,0-0.3,0.1c-0.1,0.1-0.2,0.2-0.3,0.3c-0.1,0.1-0.2,0.3-0.3,0.4
	c-0.1,0.2-0.2,0.4-0.2,0.6l-0.3,2.4h-0.9l0.3-2.8c0-0.1,0-0.3,0-0.4c0-0.1,0-0.2,0-0.3c0-0.1-0.1-0.1-0.1-0.2
	c-0.1,0-0.1-0.1-0.2-0.1c-0.1,0-0.3,0-0.4,0.1c-0.1,0.1-0.2,0.2-0.3,0.3c-0.1,0.1-0.2,0.3-0.3,0.4c-0.1,0.2-0.2,0.4-0.2,0.6
	l-0.3,2.3H48.8z"/>
<path class="st2" d="M59.3,102.8c-0.1,0.1-0.3,0.3-0.4,0.4c-0.1,0.1-0.3,0.2-0.4,0.3c-0.2,0.1-0.3,0.1-0.5,0.2
	c-0.2,0-0.4,0.1-0.5,0.1c-0.2,0-0.5,0-0.7-0.1c-0.2-0.1-0.4-0.2-0.5-0.4c-0.2-0.2-0.3-0.4-0.3-0.6c-0.1-0.2-0.1-0.5-0.2-0.7
	c0-0.2,0-0.5,0.1-0.7c0-0.2,0.1-0.4,0.2-0.7c0.1-0.2,0.2-0.4,0.3-0.6c0.1-0.2,0.3-0.3,0.5-0.4c0.2-0.1,0.4-0.2,0.6-0.3
	c0.2-0.1,0.4-0.1,0.7-0.1c0.2,0,0.4,0,0.6,0.1c0.2,0.1,0.3,0.1,0.4,0.3c0.2,0.2,0.3,0.4,0.3,0.7c0,0.2,0,0.4-0.1,0.5
	c-0.1,0.2-0.2,0.3-0.4,0.4c-0.3,0.2-0.6,0.3-0.9,0.3c-0.5,0.1-0.9,0.2-1.4,0.2v0.1c0,0.3,0.1,0.6,0.2,0.8c0.2,0.2,0.4,0.3,0.7,0.3
	c0.2,0,0.3,0,0.5-0.1c0.1-0.1,0.2-0.1,0.3-0.2l0.2-0.2c0.1,0,0.1-0.1,0.2-0.1c0.1,0,0.1,0,0.2,0.1L59.3,102.8z M58,99.7
	c-0.2,0-0.3,0-0.4,0.1c-0.1,0.1-0.3,0.2-0.4,0.3c-0.1,0.1-0.2,0.3-0.3,0.4c-0.1,0.2-0.1,0.3-0.2,0.5c0.3,0,0.7-0.1,1-0.2
	c0.2-0.1,0.4-0.1,0.6-0.2c0.1-0.1,0.2-0.1,0.3-0.2c0-0.1,0.1-0.2,0.1-0.3c0,0,0-0.1,0-0.2c0-0.1-0.1-0.1-0.1-0.1
	c-0.1,0-0.1-0.1-0.2-0.1C58.2,99.7,58.1,99.7,58,99.7z"/>
<path class="st2" d="M61.2,100.3c0.1-0.2,0.2-0.4,0.4-0.6c0.1-0.2,0.3-0.3,0.4-0.4c0.1-0.1,0.3-0.1,0.4-0.1c0.2,0,0.3,0,0.5,0.1
	l-0.2,0.9c-0.3-0.2-0.7-0.1-1,0.1c-0.4,0.4-0.6,0.9-0.7,1.4l-0.2,2h-0.9l0.6-4.5H61c0.2,0,0.3,0.1,0.3,0.2c0,0,0,0,0,0.1L61.2,100.3
	z"/>
<path class="st2" d="M66.5,102.8c-0.1,0.1-0.3,0.3-0.4,0.4c-0.1,0.1-0.3,0.2-0.4,0.3c-0.2,0.1-0.3,0.1-0.5,0.2
	c-0.2,0-0.4,0.1-0.5,0.1c-0.2,0-0.5,0-0.7-0.1c-0.2-0.1-0.4-0.2-0.5-0.4c-0.2-0.2-0.3-0.4-0.3-0.6c-0.1-0.2-0.1-0.5-0.1-0.8
	c0-0.2,0-0.5,0.1-0.7c0-0.2,0.1-0.4,0.2-0.7c0.1-0.2,0.2-0.4,0.3-0.6c0.1-0.2,0.3-0.3,0.5-0.4c0.2-0.1,0.4-0.2,0.6-0.3
	c0.2-0.1,0.4-0.1,0.7-0.1c0.2,0,0.4,0,0.6,0.1c0.2,0.1,0.3,0.1,0.4,0.3c0.2,0.2,0.3,0.4,0.3,0.7c0,0.2,0,0.4-0.1,0.5
	c-0.1,0.2-0.2,0.3-0.4,0.4c-0.3,0.2-0.6,0.3-0.9,0.3c-0.5,0.1-0.9,0.2-1.4,0.2v0.1c0,0.3,0.1,0.6,0.2,0.8c0.2,0.2,0.4,0.3,0.7,0.3
	c0.2,0,0.3,0,0.5-0.1c0.1-0.1,0.2-0.1,0.3-0.2l0.2-0.2c0.1,0,0.1-0.1,0.2-0.1c0.1,0,0.1,0,0.2,0.1L66.5,102.8z M65.2,99.7
	c-0.2,0-0.3,0-0.5,0.1c-0.1,0.1-0.3,0.2-0.4,0.3c-0.1,0.1-0.2,0.3-0.3,0.4c-0.1,0.2-0.1,0.3-0.2,0.5c0.3,0,0.7-0.1,1-0.2
	c0.2,0,0.4-0.1,0.6-0.2c0.1-0.1,0.2-0.1,0.3-0.2c0-0.1,0.1-0.2,0.1-0.3c0,0,0-0.1,0-0.2c0-0.1-0.1-0.1-0.1-0.1
	c-0.1,0-0.1-0.1-0.2-0.1C65.4,99.7,65.3,99.7,65.2,99.7z"/>
<path class="st2" d="M70.1,103.2c-0.1,0.1-0.3,0.2-0.4,0.3c-0.1,0.1-0.3,0.1-0.4,0.1c-0.2,0-0.3,0-0.5,0c-0.2,0-0.5,0-0.7-0.1
	c-0.2-0.1-0.4-0.2-0.5-0.4c-0.1-0.2-0.3-0.4-0.3-0.6c-0.1-0.2-0.1-0.5-0.1-0.8c0-0.5,0.1-0.9,0.3-1.4c0.1-0.2,0.2-0.4,0.3-0.6
	c0.1-0.2,0.3-0.3,0.5-0.4c0.2-0.1,0.4-0.2,0.6-0.3C69,99,69.2,99,69.4,99c0.3,0,0.5,0,0.8,0.2c0.2,0.1,0.4,0.3,0.5,0.5l-0.3,0.4
	l-0.1,0.1c0,0-0.1,0-0.1,0c0,0-0.1,0-0.1-0.1L70,99.9c-0.1,0-0.1-0.1-0.2-0.1c-0.1,0-0.2,0-0.3,0c-0.2,0-0.4,0.1-0.5,0.2
	c-0.2,0.1-0.3,0.3-0.4,0.4c-0.1,0.2-0.2,0.4-0.3,0.6c-0.1,0.3-0.1,0.5-0.1,0.8c0,0.3,0.1,0.6,0.2,0.8c0.2,0.2,0.4,0.3,0.7,0.3
	c0.2,0,0.3,0,0.5-0.1c0.1,0,0.2-0.1,0.3-0.2l0.2-0.2c0.1,0,0.1-0.1,0.2-0.1c0.1,0,0.1,0,0.2,0.1l0.2,0.3
	C70.4,102.9,70.2,103.1,70.1,103.2z"/>
<path class="st2" d="M74.7,102.8c-0.1,0.1-0.3,0.3-0.4,0.4c-0.1,0.1-0.3,0.2-0.4,0.3c-0.2,0.1-0.3,0.1-0.5,0.2
	c-0.2,0-0.4,0.1-0.6,0.1c-0.2,0-0.5,0-0.7-0.1c-0.2-0.1-0.4-0.2-0.5-0.4c-0.2-0.2-0.3-0.4-0.3-0.6c-0.1-0.2-0.1-0.5-0.1-0.8
	c0-0.2,0-0.5,0.1-0.7c0-0.2,0.1-0.4,0.2-0.7c0.1-0.2,0.2-0.4,0.3-0.6c0.2-0.4,0.6-0.6,1-0.8c0.2-0.1,0.4-0.1,0.7-0.1
	c0.2,0,0.4,0,0.6,0.1c0.2,0.1,0.3,0.1,0.4,0.3c0.1,0.1,0.2,0.2,0.2,0.3c0.1,0.1,0.1,0.2,0.1,0.4c0,0.2,0,0.4-0.1,0.5
	c-0.1,0.2-0.2,0.3-0.4,0.4c-0.3,0.2-0.6,0.3-0.8,0.3c-0.5,0.1-0.9,0.2-1.4,0.2c0,0,0,0,0,0.1v0.1c0,0.3,0.1,0.6,0.2,0.8
	c0.2,0.2,0.5,0.3,0.7,0.3c0.2,0,0.3,0,0.5-0.1c0.1-0.1,0.2-0.1,0.3-0.2l0.2-0.2c0.1,0,0.1-0.1,0.2-0.1c0.1,0,0.1,0,0.2,0.1
	L74.7,102.8z M73.3,99.7c-0.2,0-0.3,0-0.5,0.1c-0.1,0.1-0.3,0.2-0.4,0.3c-0.1,0.1-0.2,0.3-0.3,0.4c-0.1,0.2-0.1,0.3-0.2,0.5
	c0.3,0,0.7-0.1,1-0.2c0.2,0,0.4-0.1,0.6-0.2c0.1-0.1,0.2-0.1,0.3-0.2c0-0.1,0.1-0.2,0.1-0.3c0,0,0-0.1,0-0.2c0-0.1-0.1-0.1-0.1-0.1
	c0,0-0.1-0.1-0.2-0.1C73.5,99.7,73.4,99.7,73.3,99.7z"/>
<path class="st2" d="M75.3,103.6l0.5-4.5h0.5c0.1,0,0.2,0,0.2,0.1c0.1,0.1,0.1,0.1,0.1,0.2v0.6c0.2-0.3,0.4-0.6,0.7-0.8
	c0.2-0.2,0.5-0.3,0.8-0.2c0.3,0,0.5,0.1,0.7,0.3c0.2,0.2,0.3,0.5,0.2,0.8c0.2-0.3,0.4-0.6,0.7-0.9c0.3-0.2,0.6-0.3,0.9-0.3
	c0.3,0,0.7,0.1,0.8,0.4c0.2,0.4,0.2,0.8,0.2,1.3l-0.3,2.8h-0.9l0.3-2.8c0-0.1,0-0.3,0-0.4c0-0.1,0-0.2,0-0.3c0-0.1-0.1-0.1-0.1-0.2
	c-0.1,0-0.2-0.1-0.2-0.1c-0.1,0-0.2,0-0.3,0.1c-0.1,0.1-0.2,0.2-0.3,0.3c-0.1,0.1-0.2,0.3-0.3,0.4c-0.1,0.2-0.2,0.4-0.2,0.6
	l-0.3,2.4h-0.9l0.3-2.8c0-0.1,0-0.3,0-0.4c0-0.1,0-0.2,0-0.3c0-0.1-0.1-0.1-0.1-0.2c-0.1,0-0.1-0.1-0.2-0.1c-0.1,0-0.3,0-0.4,0.1
	c-0.1,0.1-0.2,0.2-0.3,0.3c-0.1,0.1-0.2,0.3-0.3,0.4c-0.1,0.2-0.2,0.4-0.2,0.6l-0.3,2.3L75.3,103.6z"/>
<path class="st2" d="M83.9,103.7c-0.2,0-0.5,0-0.7-0.1c-0.2-0.1-0.4-0.2-0.5-0.4c-0.2-0.2-0.3-0.4-0.3-0.6c-0.1-0.3-0.1-0.5-0.1-0.8
	c0-0.4,0.1-0.7,0.2-1.1c0.1-0.3,0.3-0.6,0.5-0.9c0.2-0.2,0.5-0.4,0.8-0.6c0.3-0.1,0.6-0.2,0.9-0.2c0.2,0,0.5,0,0.7,0.1
	c0.4,0.2,0.8,0.5,0.9,1c0.1,0.3,0.1,0.5,0.1,0.8c0,0.2,0,0.5-0.1,0.7c-0.1,0.2-0.1,0.4-0.2,0.7c-0.1,0.2-0.2,0.4-0.4,0.6
	c-0.1,0.2-0.3,0.3-0.5,0.4c-0.2,0.1-0.4,0.2-0.6,0.3C84.3,103.7,84.1,103.7,83.9,103.7z M84,102.9c0.2,0,0.4-0.1,0.5-0.2
	c0.2-0.1,0.3-0.3,0.4-0.4c0.1-0.2,0.2-0.4,0.3-0.6c0.1-0.2,0.1-0.5,0.1-0.8c0-0.3-0.1-0.6-0.2-0.9c-0.2-0.2-0.4-0.3-0.6-0.3
	c-0.2,0-0.4,0.1-0.5,0.2c-0.2,0.1-0.3,0.3-0.4,0.4c-0.1,0.2-0.2,0.4-0.3,0.6c-0.1,0.2-0.1,0.5-0.1,0.8
	C83.2,102.5,83.4,102.9,84,102.9z"/>
<path class="st2" d="M89.7,99.9C89.7,99.9,89.7,100,89.7,99.9c-0.1,0.1-0.1,0.1-0.2,0.1c-0.1,0-0.1,0-0.2-0.1l-0.2-0.1
	c-0.1,0-0.2-0.1-0.2-0.1c-0.1,0-0.2,0-0.3,0c-0.1,0-0.2,0-0.3,0.1c-0.1,0-0.2,0.1-0.2,0.1c-0.1,0.1-0.1,0.1-0.2,0.2
	c0,0.1-0.1,0.2-0.1,0.2c0,0.1,0,0.2,0.1,0.2c0.1,0.1,0.1,0.1,0.2,0.2c0.1,0.1,0.2,0.1,0.3,0.1l0.3,0.1c0.1,0,0.2,0.1,0.3,0.2
	c0.1,0.1,0.2,0.1,0.3,0.2c0.2,0.2,0.3,0.5,0.3,0.7c0,0.2,0,0.4-0.1,0.6c-0.1,0.2-0.2,0.4-0.4,0.5c-0.2,0.2-0.4,0.3-0.6,0.3
	c-0.2,0.1-0.5,0.1-0.7,0.1c-0.3,0-0.5,0-0.8-0.2c-0.2-0.1-0.4-0.2-0.6-0.4l0.2-0.4c0,0,0.1-0.1,0.1-0.1c0,0,0.1,0,0.1,0
	c0.1,0,0.1,0,0.2,0.1l0.2,0.1c0.1,0.1,0.2,0.1,0.2,0.1c0.1,0,0.3,0.1,0.4,0.1c0.1,0,0.2,0,0.3,0c0.1,0,0.2-0.1,0.3-0.2
	c0.1-0.1,0.2-0.3,0.2-0.5c0-0.1,0-0.2-0.1-0.3c-0.1-0.1-0.1-0.1-0.2-0.2c-0.1-0.1-0.2-0.1-0.3-0.1c-0.1,0-0.2-0.1-0.3-0.1
	c-0.1,0-0.2-0.1-0.3-0.1c-0.1-0.1-0.2-0.1-0.3-0.2c-0.1-0.1-0.2-0.2-0.2-0.3c-0.1-0.1-0.1-0.3-0.1-0.4c0-0.2,0-0.4,0.1-0.6
	c0.1-0.2,0.2-0.4,0.3-0.5c0.2-0.1,0.3-0.3,0.5-0.3c0.2-0.1,0.5-0.1,0.7-0.1c0.3,0,0.5,0,0.7,0.1c0.2,0.1,0.4,0.2,0.6,0.4L89.7,99.9z
	"/>
<path class="st2" d="M95.2,99.9C95.2,99.9,95.2,100,95.2,99.9c-0.1,0.1-0.1,0.1-0.2,0.1c-0.1,0-0.1,0-0.2-0.1l-0.2-0.1
	c-0.1,0-0.2-0.1-0.2-0.1c-0.1,0-0.2-0.1-0.3-0.1c-0.1,0-0.2,0-0.3,0.1c-0.1,0-0.2,0.1-0.2,0.1c-0.1,0.1-0.1,0.1-0.2,0.2
	c0,0.1-0.1,0.2-0.1,0.2c0,0.1,0,0.2,0.1,0.2c0.1,0.1,0.1,0.1,0.2,0.2l0.3,0.1l0.3,0.1c0.1,0,0.2,0.1,0.3,0.2
	c0.1,0.1,0.2,0.1,0.3,0.2c0.2,0.2,0.3,0.4,0.3,0.7c0,0.2,0,0.4-0.1,0.6c-0.1,0.2-0.2,0.4-0.4,0.5c-0.2,0.2-0.4,0.3-0.6,0.3
	c-0.2,0.1-0.5,0.1-0.7,0.1c-0.3,0-0.5,0-0.8-0.2c-0.2-0.1-0.4-0.2-0.6-0.4l0.2-0.4c0,0,0.1-0.1,0.1-0.1c0,0,0.1,0,0.1,0
	c0.1,0,0.1,0,0.2,0.1l0.2,0.1c0.1,0.1,0.2,0.1,0.2,0.1c0.1,0,0.3,0.1,0.4,0.1c0.1,0,0.2,0,0.3,0c0.1,0,0.2-0.1,0.3-0.2
	c0.1-0.1,0.1-0.1,0.2-0.2c0-0.1,0.1-0.2,0.1-0.3c0-0.1,0-0.2-0.1-0.3c-0.1-0.1-0.1-0.1-0.2-0.2c-0.1-0.1-0.2-0.1-0.3-0.1
	c-0.1,0-0.2-0.1-0.3-0.1c-0.1,0-0.2-0.1-0.3-0.1c-0.1,0-0.2-0.1-0.3-0.2c-0.1-0.1-0.2-0.2-0.2-0.3c-0.1-0.1-0.1-0.3-0.1-0.4
	c0-0.2,0-0.4,0.1-0.6c0.1-0.2,0.2-0.4,0.3-0.5c0.1-0.1,0.3-0.3,0.5-0.3c0.2-0.1,0.5-0.1,0.7-0.1c0.5,0,0.9,0.2,1.3,0.5L95.2,99.9z"
	/>
<path class="st2" d="M97.6,103.7c-0.2,0-0.5,0-0.7-0.1c-0.2-0.1-0.4-0.2-0.5-0.4c-0.2-0.2-0.3-0.4-0.3-0.6c-0.1-0.3-0.1-0.5-0.1-0.8
	c0-0.4,0.1-0.7,0.2-1.1c0.1-0.3,0.3-0.6,0.5-0.9c0.2-0.2,0.5-0.4,0.7-0.6c0.3-0.1,0.6-0.2,0.9-0.2c0.2,0,0.5,0,0.7,0.1
	c0.4,0.2,0.8,0.5,0.9,1c0.1,0.3,0.1,0.5,0.1,0.8c0,0.2,0,0.5-0.1,0.7c-0.1,0.2-0.1,0.4-0.2,0.7c-0.1,0.2-0.2,0.4-0.4,0.6
	c-0.1,0.2-0.3,0.3-0.5,0.4c-0.2,0.1-0.4,0.2-0.6,0.3C98,103.7,97.8,103.7,97.6,103.7z M97.6,102.9c0.2,0,0.4-0.1,0.5-0.2
	c0.2-0.1,0.3-0.3,0.4-0.4c0.1-0.2,0.2-0.4,0.3-0.6c0.1-0.2,0.1-0.5,0.1-0.8c0-0.3-0.1-0.6-0.2-0.9c-0.2-0.2-0.4-0.3-0.6-0.3
	c-0.2,0-0.4,0.1-0.5,0.2c-0.2,0.1-0.3,0.3-0.4,0.4c-0.1,0.2-0.2,0.4-0.3,0.6c-0.1,0.2-0.1,0.5-0.1,0.8
	C96.8,102.5,97.1,102.9,97.6,102.9L97.6,102.9z"/>
<path class="st2" d="M101.7,100.1c0.2-0.3,0.5-0.6,0.8-0.8c0.3-0.2,0.6-0.3,0.9-0.3c0.2,0,0.3,0,0.5,0.1c0.1,0.1,0.3,0.2,0.4,0.3
	c0.1,0.2,0.2,0.3,0.2,0.5c0,0.2,0,0.5,0,0.7l-0.3,2.8h-0.9l0.3-2.8c0.1-0.2,0.1-0.5,0-0.7c-0.1-0.1-0.2-0.2-0.4-0.2
	c-0.1,0-0.3,0-0.4,0.1c-0.1,0.1-0.3,0.2-0.4,0.3c-0.1,0.2-0.2,0.3-0.3,0.5c-0.1,0.2-0.2,0.4-0.3,0.6l-0.2,2.2h-0.9l0.5-4.5h0.5
	c0.2,0,0.3,0.1,0.3,0.2c0,0,0,0,0,0.1L101.7,100.1z"/>
<path class="st2" d="M106.4,100.3c0.1-0.2,0.2-0.4,0.4-0.6c0.1-0.2,0.3-0.3,0.4-0.4c0.1-0.1,0.3-0.1,0.4-0.1c0.2,0,0.3,0,0.5,0.1
	l-0.2,0.9c-0.3-0.2-0.7-0.1-1,0.1c-0.4,0.4-0.6,0.9-0.7,1.4l-0.2,2h-0.9l0.5-4.5h0.5c0.2,0,0.3,0.1,0.3,0.2c0,0,0,0,0,0.1
	L106.4,100.3z"/>
<path class="st2" d="M111.7,102.8c-0.1,0.1-0.3,0.3-0.4,0.4c-0.1,0.1-0.3,0.2-0.4,0.3c-0.1,0.1-0.3,0.1-0.5,0.2
	c-0.2,0-0.4,0.1-0.6,0.1c-0.2,0-0.5,0-0.7-0.1c-0.2-0.1-0.4-0.2-0.5-0.4c-0.1-0.2-0.3-0.4-0.3-0.6c-0.1-0.2-0.1-0.5-0.1-0.8
	c0-0.2,0-0.5,0.1-0.7c0-0.2,0.1-0.4,0.2-0.7c0.1-0.2,0.2-0.4,0.3-0.6c0.1-0.2,0.3-0.3,0.5-0.4c0.2-0.1,0.4-0.2,0.6-0.3
	c0.2-0.1,0.4-0.1,0.7-0.1c0.2,0,0.4,0,0.6,0.1c0.2,0.1,0.3,0.2,0.4,0.3c0.1,0.1,0.2,0.2,0.2,0.3c0,0.1,0.1,0.2,0.1,0.4
	c0,0.2,0,0.4-0.1,0.5c-0.1,0.2-0.2,0.3-0.4,0.4c-0.3,0.2-0.6,0.3-0.9,0.3c-0.5,0.1-0.9,0.2-1.4,0.2v0.1c0,0.3,0.1,0.6,0.2,0.8
	c0.2,0.2,0.4,0.3,0.7,0.3c0.2,0,0.3,0,0.5-0.1l0.3-0.2l0.2-0.2c0.1,0,0.1-0.1,0.2-0.1c0.1,0,0.1,0,0.2,0.1L111.7,102.8z M110.4,99.7
	c-0.2,0-0.3,0-0.5,0.1c-0.1,0.1-0.3,0.2-0.4,0.3c-0.1,0.1-0.2,0.3-0.3,0.4c-0.1,0.2-0.1,0.3-0.2,0.5c0.3,0,0.7-0.1,1-0.2
	c0.2,0,0.4-0.1,0.6-0.2c0.1-0.1,0.2-0.1,0.3-0.2c0-0.1,0.1-0.2,0.1-0.3c0,0,0-0.1,0-0.2c0-0.1-0.1-0.1-0.1-0.1
	c-0.1,0-0.1-0.1-0.2-0.1C110.6,99.7,110.5,99.7,110.4,99.7L110.4,99.7z"/>
<path class="st2" d="M113.8,99.1l-0.5,4.5h-0.9l0.5-4.5H113.8z M114.1,97.8c0,0.1,0,0.2-0.1,0.2c0,0.1-0.1,0.1-0.1,0.2
	c-0.1,0.1-0.1,0.1-0.2,0.1c-0.1,0-0.2,0-0.2,0c-0.1,0-0.2,0-0.2,0c-0.1,0-0.1-0.1-0.2-0.1c-0.1-0.1-0.1-0.1-0.1-0.2
	c0-0.1,0-0.2,0-0.2c0-0.1,0-0.2,0-0.2c0-0.1,0.1-0.1,0.1-0.2c0.1-0.1,0.1-0.1,0.2-0.1c0.1,0,0.1,0,0.2,0c0.1,0,0.2,0,0.2,0
	c0.1,0,0.1,0.1,0.2,0.1c0.1,0.1,0.1,0.1,0.1,0.2C114.1,97.6,114.1,97.7,114.1,97.8z"/>
<path class="st2" d="M115.7,100.3c0.1-0.2,0.2-0.4,0.4-0.6c0.1-0.2,0.3-0.3,0.4-0.4c0.1-0.1,0.3-0.1,0.4-0.2c0.2,0,0.3,0,0.5,0.1
	l-0.2,0.9c-0.3-0.2-0.7-0.1-1,0.1c-0.4,0.4-0.6,0.9-0.7,1.4l-0.2,2h-0.9l0.5-4.5h0.5c0.2,0,0.3,0.1,0.3,0.2c0,0,0,0.1,0,0.1
	L115.7,100.3z"/>
</svg>
