<svg id="Layer_1" data-name="Layer 1" xmlns="http://www.w3.org/2000/svg" viewBox="0 0 198.92 159.69"><defs><style>.cls-1{fill:#f9f9f9;}.cls-2{fill:#81bbe0;}.cls-3{fill:#7d7979;}</style></defs><title>logo-rident</title><path class="cls-1" d="M7,146.82q7.72,1.47,15.48,2.89c9.13,1.68,18.28,3.33,27.48,4.86,6.84,1.15,13.7,2.23,20.61,3.2,3.91.55,7.85,1,11.81,1.44a93.39,93.39,0,0,0,12.18.43q3.33-.09,6.65-.32c2.87-.18,5.73-.39,8.58-.65,3-.27,6.07-.59,9.09-.93q6.66-.74,13.26-1.61c11-1.45,21.92-3.1,32.79-4.88,10.69-1.74,21.37-3.54,32-5.51l2-.36V0H0V145.46a5.14,5.14,0,0,0,.7.09C2.77,146.05,4.91,146.41,7,146.82Z"/><path class="cls-2" d="M43.57,89.51c1.27.49,2.58.86,3.87,1.27q4.73,1.5,9.46,2.93c5.58,1.7,11.17,3.37,16.79,4.93,4.18,1.15,8.37,2.26,12.6,3.25q3.58.84,7.22,1.46a35.14,35.14,0,0,0,7.45.48c1.36,0,2.72-.16,4.08-.29,1.75-.17,3.5-.37,5.25-.61s3.72-.56,5.57-.89q4.08-.71,8.13-1.54c6.74-1.39,13.44-3,20.1-4.7s13.11-3.42,19.61-5.33l1.54-.44c.12,0,.29-.18.37,0s-.13.26-.25.31c-1.41.58-2.82,1.18-4.23,1.73-4.19,1.65-8.42,3.15-12.68,4.56q-7.84,2.6-15.81,4.73-5.82,1.56-11.73,2.82c-2.87.6-5.75,1.17-8.65,1.6-2,.31-4.09.61-6.15.78-1.52.13-3,.27-4.56.33-.94,0-1.89.07-2.83,0a41.78,41.78,0,0,1-6-.7,146.25,146.25,0,0,1-15.13-3.82c-3-.9-6-1.87-9-2.88q-11.4-3.82-22.51-8.44c-1.28-.53-2.55-1.11-3.83-1.67,0-.26.14-.33.39-.23A3.57,3.57,0,0,0,43.57,89.51Z"/><path class="cls-2" d="M68.46,37.6a42.23,42.23,0,0,0-5,1.77,16.56,16.56,0,0,0-5.21,3.35,8.9,8.9,0,0,0-2.68,5.34,14.2,14.2,0,0,0,.8,6.23A36.1,36.1,0,0,0,59,60a35,35,0,0,1,3.56,9.86A33.27,33.27,0,0,1,63,78.11a41.12,41.12,0,0,1-1.85,10c-.1.34-.07.52.28.65a6.18,6.18,0,0,1,.92.48.41.41,0,0,0,.6-.1l6.74-7c1.39-1.44,2.77-2.9,4.16-4.35l7-7.29c.36-.38.4-.4.72,0a10.48,10.48,0,0,0,1,1.08c.22.21.17.29-.08.42A16.8,16.8,0,0,0,78,75.48,45.16,45.16,0,0,0,74.2,80.2C72.85,82.09,71.51,84,70,85.75a18.36,18.36,0,0,1-10.35,6.42c-.42.09-.43.07-.38-.35.09-.81.16-1.62.22-2.43a50.4,50.4,0,0,1,.77-6.24c.23-1.13.37-2.28.53-3.42A31.22,31.22,0,0,0,61,74.9a21.65,21.65,0,0,0-1.92-8.41,39.75,39.75,0,0,0-2.35-4.17,22.92,22.92,0,0,1-2.5-6.74,37.53,37.53,0,0,1-.85-5.88,10.22,10.22,0,0,1,6.93-10.86,20.13,20.13,0,0,1,5.85-1.21C66.91,37.57,67.68,37.6,68.46,37.6Z"/><path class="cls-2" d="M86.74,76.36l2.58,3.43c.67.88,1.34,1.75,2,2.65.2.27.29.17.44,0a25,25,0,0,0,2.6-4.17,38,38,0,0,0,3.29-10.18,52.1,52.1,0,0,0,.75-6.1,46.62,46.62,0,0,0,.08-5.15,40.86,40.86,0,0,0-2.62-13.48,20.66,20.66,0,0,0-4.15-6.81A9.46,9.46,0,0,0,88,34.37C86,33.65,84,33.17,82.09,32.5c-.41-.14-.81-.3-1.27-.47a6.77,6.77,0,0,1,1.92-1.24,7.78,7.78,0,0,1,6.44,0,16.28,16.28,0,0,1,6.1,4.6,19.93,19.93,0,0,1,4.16,9.31,45.67,45.67,0,0,1,.68,5.2c.13,1.59.22,3.18.33,4.77.09,1.27.07,2.53.07,3.79a44,44,0,0,1-.14,4.44,56.3,56.3,0,0,1-2.33,12,50.45,50.45,0,0,1-6.86,13.63c-.19.28-.39.54-.6.81-.07.1-.1.29-.25.27s-.14-.23-.17-.36c-.5-1.82-1-3.64-1.47-5.45q-1-3.57-1.94-7.12A1.38,1.38,0,0,1,86.74,76.36Z"/><path class="cls-3" d="M156.23,87v-.54l.21-32.19V54c0-.33.09-.62.45-.63s.43.31.42.63q-.1,17.53-.22,35.07c0,.29,0,.54-.35.62s-.46-.16-.56-.38c-.45-1-.88-2-1.31-3.08Q151.23,77.61,147.6,69q-2.64-6.28-5.26-12.58c-.06-.12-.07-.28-.24-.39v.54l-.21,32.24a1.08,1.08,0,0,1-.08.59.44.44,0,0,1-.48.24.38.38,0,0,1-.31-.41c0-.11,0-.21,0-.31q.1-17.49.22-35a1.45,1.45,0,0,1,0-.47.41.41,0,0,1,.74,0,6.48,6.48,0,0,1,.53,1.13l3.63,8.62q3.6,8.57,7.19,17.13l2.72,6.51S156.15,86.88,156.23,87Z"/><path class="cls-3" d="M24.93,71.83l3.71,4.6,6,7.47q1.85,2.3,3.71,4.57c.39.48.46.76.18,1-.47.34-.65-.16-.86-.39-1.92-2.1-3.6-4.41-5.4-6.61-1.59-1.94-3.19-3.88-4.77-5.84-1.17-1.44-2.32-2.9-3.48-4.35l-.27-.34c-.13.13-.08.26-.08.38q0,6.16-.1,12.32c0,1.45-.07,2.91-.09,4.36,0,.28-.11.45-.39.48s-.44-.17-.49-.44a2,2,0,0,1,0-.35q.12-17.39.23-34.77c0-.71.15-.84.88-.85a24.1,24.1,0,0,1,9.93,2.07,9.75,9.75,0,0,1,4.13,3.23,6.71,6.71,0,0,1,1.11,4.5c-.15,2.64-1.75,4.32-3.76,5.74a19.78,19.78,0,0,1-5.74,2.48,18.32,18.32,0,0,1-4.22.75Zm-1.19-9.45q0,4,0,8.08c0,.26,0,.36.33.4a8.89,8.89,0,0,0,2.42-.12A26.69,26.69,0,0,0,32,69.15a10.92,10.92,0,0,0,4.67-3.31A5.83,5.83,0,0,0,36,57.69a11.78,11.78,0,0,0-3.51-2,24.11,24.11,0,0,0-5.81-1.5c-.85-.1-1.71-.11-2.55-.26-.32,0-.31.15-.31.36Q23.78,58.32,23.74,62.38Z"/><path class="cls-3" d="M102.86,71.15q0-8.76.11-17.52c0-.62.09-.72.71-.7a15.63,15.63,0,0,1,8,2.62,15.28,15.28,0,0,1,6.66,9.71,26.6,26.6,0,0,1,.55,7.65A19.41,19.41,0,0,1,117,80.78a15.45,15.45,0,0,1-7.47,7.13,15.9,15.9,0,0,1-5.2,1.38,9.06,9.06,0,0,1-.91.07c-.65,0-.7-.06-.7-.69Zm.86,0-.11,16.29c0,.22,0,.44,0,.66s0,.33.31.33a8.08,8.08,0,0,0,1.29-.14,17.33,17.33,0,0,0,3.67-1.13,13.84,13.84,0,0,0,7.56-7.47,19.43,19.43,0,0,0,1.54-6.5,23.9,23.9,0,0,0-.84-8.7,13.67,13.67,0,0,0-5.44-7.77,16.66,16.66,0,0,0-7.41-2.82c-.35,0-.47,0-.47.43Q103.79,62.73,103.72,71.13Z"/><path class="cls-3" d="M122.84,62.42c0,2.66,0,5.33-.07,8,0,.4.11.47.48.47,3.43,0,6.85,0,10.27.06h.35c.24,0,.31.21.34.39a.33.33,0,0,1-.27.39,2.09,2.09,0,0,1-.56,0c-3.38,0-6.76,0-10.13-.07-.39,0-.48.1-.49.48q0,8-.1,16c0,.37.09.46.45.46l14.11.08c.29,0,.61,0,.65.39a.38.38,0,0,1-.37.48,1.61,1.61,0,0,1-.31,0l-14.68-.1c-.61,0-.72-.12-.72-.74q.12-17.47.23-34.95c0-.62.13-.74.74-.74l14.54.1c.32,0,.68-.06.72.42a.37.37,0,0,1-.37.44c-.12,0-.24,0-.35,0-4.65,0-9.29,0-13.94-.1-.37,0-.48.07-.48.47C122.88,57.06,122.85,59.74,122.84,62.42Z"/><path class="cls-3" d="M168.66,71.93q-.06,8.53-.11,17.07c0,.13,0,.27,0,.4a.41.41,0,0,1-.8.1,1.32,1.32,0,0,1-.05-.56q.1-17.1.23-34.19c0-.44-.09-.56-.54-.56-2.14,0-4.28,0-6.42,0a1.17,1.17,0,0,1-.38,0,.43.43,0,0,1-.28-.42.42.42,0,0,1,.28-.36.94.94,0,0,1,.47-.05l14.54.1h.18c.32,0,.55.12.54.47s-.26.4-.55.39l-5.29,0c-.42,0-.84,0-1.26,0s-.46.06-.45.42c0,.77,0,1.54,0,2.32Z"/><path class="cls-3" d="M43.57,89.51a3.57,3.57,0,0,1-1-.28c-.25-.1-.37,0-.39.23-.35,0-.42-.21-.41-.47s.25-.37.5-.37c.78,0,1.57,0,2.35,0,.32,0,.42-.06.42-.4q.1-16.91.22-33.81c0-.34-.11-.41-.42-.4-.8,0-1.6,0-2.4,0-.3,0-.51-.08-.52-.42s.25-.43.52-.43c2.15,0,4.31,0,6.46,0,.31,0,.55.13.53.49s-.26.37-.53.36c-.8,0-1.6,0-2.4,0-.31,0-.39.07-.39.38,0,2.67,0,5.33,0,8Q46,75.27,45.94,88.14c0,.37.06.53.48.51.77,0,1.54,0,2.32,0a.62.62,0,0,1,.5.19.4.4,0,0,1,.07.45.45.45,0,0,1-.43.24c-.76,0-1.52,0-2.27,0C45.59,89.58,44.58,89.45,43.57,89.51Z"/><path class="cls-2" d="M38.5,117l-2.67,0-1.06,8.18H33.3l1.06-8.18-2.68,0,.15-1.22,6.83,0Z"/><path class="cls-2" d="M39.59,125.26a2.8,2.8,0,0,1-1-.19,2.3,2.3,0,0,1-.79-.55,2.34,2.34,0,0,1-.52-.88,3.36,3.36,0,0,1-.19-1.18,4.64,4.64,0,0,1,.29-1.6,3.91,3.91,0,0,1,.75-1.29,3.42,3.42,0,0,1,1.1-.87,3,3,0,0,1,1.36-.31,2.8,2.8,0,0,1,1,.2,2.18,2.18,0,0,1,.79.54,2.74,2.74,0,0,1,.52.88,3.67,3.67,0,0,1,.18,1.19,4.84,4.84,0,0,1-.13,1.08,5.17,5.17,0,0,1-.35,1,3.8,3.8,0,0,1-.55.82,3.44,3.44,0,0,1-.7.63,3,3,0,0,1-1.75.55Zm.13-1.1a1.42,1.42,0,0,0,.8-.24,2.12,2.12,0,0,0,.61-.65,3.57,3.57,0,0,0,.4-1,4.6,4.6,0,0,0,.14-1.13,2.07,2.07,0,0,0-.31-1.28,1.12,1.12,0,0,0-.93-.42,1.37,1.37,0,0,0-.8.24,2,2,0,0,0-.61.64,3.57,3.57,0,0,0-.4.95,4.66,4.66,0,0,0-.14,1.13C38.47,123.59,38.89,124.16,39.72,124.16Z"/><path class="cls-2" d="M50.49,115.56l-1.26,9.66h-.74a.41.41,0,0,1-.36-.14.62.62,0,0,1-.09-.34l.09-1.14a5,5,0,0,1-.54.7,3.32,3.32,0,0,1-.59.54,2.53,2.53,0,0,1-.65.34,2,2,0,0,1-.68.12,1.6,1.6,0,0,1-1.33-.63,2.92,2.92,0,0,1-.47-1.85,5.15,5.15,0,0,1,.12-1.1,4.59,4.59,0,0,1,.33-1,5,5,0,0,1,.51-.9,4.08,4.08,0,0,1,.66-.71,3.15,3.15,0,0,1,.78-.48,2.35,2.35,0,0,1,.87-.16,2,2,0,0,1,.85.18,1.93,1.93,0,0,1,.66.5l.47-3.57Zm-2,4.49a1.21,1.21,0,0,0-.55-.4,1.76,1.76,0,0,0-.63-.12,1.4,1.4,0,0,0-.85.28,2.45,2.45,0,0,0-.66.73,4,4,0,0,0-.42,1,4,4,0,0,0-.16,1.13,2,2,0,0,0,.25,1.11.81.81,0,0,0,.71.38,1.08,1.08,0,0,0,.59-.19,2.5,2.5,0,0,0,.58-.52,4.8,4.8,0,0,0,.52-.78,6,6,0,0,0,.41-1Z"/><path class="cls-2" d="M53.39,125.35a2.8,2.8,0,0,1-1-.19,2.3,2.3,0,0,1-.79-.55,2.34,2.34,0,0,1-.52-.88,3.36,3.36,0,0,1-.19-1.18,4.64,4.64,0,0,1,.29-1.6,4.06,4.06,0,0,1,.75-1.3,3.53,3.53,0,0,1,1.1-.86,3,3,0,0,1,1.36-.31,2.8,2.8,0,0,1,1,.2,2.18,2.18,0,0,1,.79.54,2.74,2.74,0,0,1,.52.88,3.63,3.63,0,0,1,.18,1.19,4.69,4.69,0,0,1-.48,2,4,4,0,0,1-.55.83,3.44,3.44,0,0,1-.7.63,3,3,0,0,1-1.75.55Zm.13-1.1a1.42,1.42,0,0,0,.8-.24,2.12,2.12,0,0,0,.61-.65,3.72,3.72,0,0,0,.4-1,4.6,4.6,0,0,0,.14-1.13,2.07,2.07,0,0,0-.31-1.28,1.09,1.09,0,0,0-.93-.42,1.37,1.37,0,0,0-.8.24,2,2,0,0,0-.61.64,3.26,3.26,0,0,0-.39,1,4.22,4.22,0,0,0-.15,1.13C52.27,123.68,52.69,124.25,53.52,124.25Z"/><path class="cls-2" d="M62.06,119.81a.38.38,0,0,1-.12.13.33.33,0,0,1-.15,0,.51.51,0,0,1-.22-.07l-.26-.16a1.5,1.5,0,0,0-.36-.15,1.8,1.8,0,0,0-.5-.08,1.89,1.89,0,0,0-.5.07,1.15,1.15,0,0,0-.38.2,1,1,0,0,0-.24.29.86.86,0,0,0-.08.36.61.61,0,0,0,.11.36,1.08,1.08,0,0,0,.3.26,2.46,2.46,0,0,0,.43.21l.5.19a5.4,5.4,0,0,1,.49.23,1.88,1.88,0,0,1,.43.31,1.42,1.42,0,0,1,.3.44,1.57,1.57,0,0,1,.11.6,2.35,2.35,0,0,1-.19.91,2.47,2.47,0,0,1-.54.75,2.87,2.87,0,0,1-.85.51,3,3,0,0,1-1.1.18,2.66,2.66,0,0,1-1.15-.24,2.31,2.31,0,0,1-.82-.59l.35-.53a.45.45,0,0,1,.16-.15.33.33,0,0,1,.21-.06.35.35,0,0,1,.22.09l.27.2a1.81,1.81,0,0,0,.37.2,1.57,1.57,0,0,0,.58.09,1.42,1.42,0,0,0,.52-.08,1.24,1.24,0,0,0,.39-.22,1.27,1.27,0,0,0,.24-.33.93.93,0,0,0,.09-.4.67.67,0,0,0-.11-.39,1.15,1.15,0,0,0-.3-.28,3.45,3.45,0,0,0-.43-.2l-.49-.18a4.25,4.25,0,0,1-.49-.21,1.84,1.84,0,0,1-.43-.3,1.5,1.5,0,0,1-.3-.43,1.6,1.6,0,0,1-.11-.62,2.12,2.12,0,0,1,.18-.84,2.06,2.06,0,0,1,.49-.71,2.37,2.37,0,0,1,.79-.5,2.71,2.71,0,0,1,1.06-.19,2.82,2.82,0,0,1,1.09.22,2.49,2.49,0,0,1,.81.56Z"/><path class="cls-2" d="M65.88,125.33l.85-6.67h.7a.46.46,0,0,1,.35.12.45.45,0,0,1,.12.35l-.06,1a3.68,3.68,0,0,1,1-1.13,2,2,0,0,1,1.17-.36,1.15,1.15,0,0,1,1,.44,2,2,0,0,1,.36,1.25A3.68,3.68,0,0,1,72.46,119a2.23,2.23,0,0,1,1.28-.4,1.33,1.33,0,0,1,1.23.67,3,3,0,0,1,.23,1.87l-.53,4.24H73.29l.52-4.24a3.45,3.45,0,0,0,0-.61,1.33,1.33,0,0,0-.07-.43.5.5,0,0,0-.21-.24.57.57,0,0,0-.34-.08,1.15,1.15,0,0,0-.53.13,1.76,1.76,0,0,0-.49.4,2.8,2.8,0,0,0-.44.63,5.7,5.7,0,0,0-.37.86L71,125.36H69.58l.53-4.24a3.5,3.5,0,0,0,0-.61,1,1,0,0,0-.07-.43.48.48,0,0,0-.19-.25.7.7,0,0,0-.35-.08,1.11,1.11,0,0,0-.55.15,1.72,1.72,0,0,0-.5.42,4,4,0,0,0-.44.66,6.11,6.11,0,0,0-.36.89l-.44,3.47Z"/><path class="cls-2" d="M81.61,124.2a5.78,5.78,0,0,1-.67.59,3.18,3.18,0,0,1-.67.41,3.13,3.13,0,0,1-.71.24,4.18,4.18,0,0,1-.82.07,2.68,2.68,0,0,1-1-.2,2.23,2.23,0,0,1-.79-.56,2.3,2.3,0,0,1-.5-.86,3.41,3.41,0,0,1-.17-1.14,4.46,4.46,0,0,1,.12-1,3.89,3.89,0,0,1,.33-1,3.81,3.81,0,0,1,.52-.84,3.42,3.42,0,0,1,.7-.67,3.15,3.15,0,0,1,.86-.43,3,3,0,0,1,1-.16,2.4,2.4,0,0,1,.89.15,1.93,1.93,0,0,1,.63.39,1.66,1.66,0,0,1,.38.51,1.4,1.4,0,0,1,.12.55,2,2,0,0,1-.19.81,1.68,1.68,0,0,1-.65.65,4.41,4.41,0,0,1-1.27.5,13.48,13.48,0,0,1-2.07.34.19.19,0,0,0,0,.08v.09A1.88,1.88,0,0,0,78,124a1.35,1.35,0,0,0,1.08.43,2,2,0,0,0,.75-.12,2.43,2.43,0,0,0,.51-.27,3.12,3.12,0,0,0,.38-.27.56.56,0,0,1,.34-.12.36.36,0,0,1,.25.13Zm-1.93-4.54a1.39,1.39,0,0,0-.67.14,1.88,1.88,0,0,0-.56.41,2.59,2.59,0,0,0-.43.63,3.29,3.29,0,0,0-.28.8,11.86,11.86,0,0,0,1.45-.26,3.55,3.55,0,0,0,.85-.3,1.15,1.15,0,0,0,.39-.36.86.86,0,0,0,.1-.41.66.66,0,0,0,0-.23.55.55,0,0,0-.15-.2.76.76,0,0,0-.26-.16A1.16,1.16,0,0,0,79.68,119.66Z"/><path class="cls-2" d="M84.47,120.5a4.79,4.79,0,0,1,.56-.9,2.83,2.83,0,0,1,.62-.59,1.49,1.49,0,0,1,.67-.25,1.29,1.29,0,0,1,.69.11l-.26,1.35a1.31,1.31,0,0,0-1.46.2,4,4,0,0,0-1,2.06l-.38,3H82.53l.85-6.68h.7a.51.51,0,0,1,.35.11.49.49,0,0,1,.12.36Z"/><path class="cls-2" d="M92.28,124.27a6.91,6.91,0,0,1-.67.59,3.18,3.18,0,0,1-.67.41,3,3,0,0,1-.72.24,4,4,0,0,1-.81.07,2.68,2.68,0,0,1-1-.2,2.23,2.23,0,0,1-.79-.56,2.38,2.38,0,0,1-.5-.86,3.41,3.41,0,0,1-.17-1.14,4.46,4.46,0,0,1,.12-1,3.89,3.89,0,0,1,.33-1,3.81,3.81,0,0,1,.52-.84,3.37,3.37,0,0,1,.69-.67,3.49,3.49,0,0,1,.86-.44,3.33,3.33,0,0,1,1-.15,2.4,2.4,0,0,1,.89.15,1.87,1.87,0,0,1,.63.39,1.39,1.39,0,0,1,.37.51,1.12,1.12,0,0,1,.12.55,1.82,1.82,0,0,1-.18.81,1.68,1.68,0,0,1-.65.65,4.41,4.41,0,0,1-1.27.5,14.83,14.83,0,0,1-2.07.34.19.19,0,0,0,0,.08v.09a1.83,1.83,0,0,0,.35,1.25,1.35,1.35,0,0,0,1.08.43,2,2,0,0,0,.75-.12,2.43,2.43,0,0,0,.51-.27,4.17,4.17,0,0,0,.38-.27.54.54,0,0,1,.33-.12.36.36,0,0,1,.26.13Zm-1.93-4.55a1.5,1.5,0,0,0-.67.15,1.88,1.88,0,0,0-.56.41,2.59,2.59,0,0,0-.43.63,3.29,3.29,0,0,0-.28.8,11.86,11.86,0,0,0,1.45-.26,3.29,3.29,0,0,0,.84-.3,1.11,1.11,0,0,0,.4-.36,1,1,0,0,0,.1-.41,1,1,0,0,0,0-.23.91.91,0,0,0-.15-.21.93.93,0,0,0-.26-.15A1.44,1.44,0,0,0,90.35,119.72Z"/><path class="cls-2" d="M97.62,125a3.15,3.15,0,0,1-.63.4,2.4,2.4,0,0,1-.64.21,5.62,5.62,0,0,1-.74.05,2.56,2.56,0,0,1-1-.2,2.27,2.27,0,0,1-.76-.57,2.63,2.63,0,0,1-.46-.88,3.63,3.63,0,0,1-.16-1.13,5.2,5.2,0,0,1,.13-1,4.46,4.46,0,0,1,.34-1,3.78,3.78,0,0,1,.53-.83,3.3,3.3,0,0,1,.7-.65,3,3,0,0,1,.84-.43,2.74,2.74,0,0,1,1-.14,2.35,2.35,0,0,1,1.12.24,2.3,2.3,0,0,1,.8.7l-.45.53a.38.38,0,0,1-.12.09.24.24,0,0,1-.14,0,.31.31,0,0,1-.19-.08l-.22-.16a2.5,2.5,0,0,0-.33-.17,1.4,1.4,0,0,0-.5-.07,1.48,1.48,0,0,0-.78.21,2,2,0,0,0-.65.62,3,3,0,0,0-.45.94,4.07,4.07,0,0,0-.17,1.19,2,2,0,0,0,.33,1.22,1.17,1.17,0,0,0,1,.44,1.9,1.9,0,0,0,.68-.11,2.33,2.33,0,0,0,.45-.25l.33-.26a.42.42,0,0,1,.29-.11.33.33,0,0,1,.25.13l.35.43A5.06,5.06,0,0,1,97.62,125Z"/><path class="cls-2" d="M104.38,124.35a6.91,6.91,0,0,1-.67.59,3.66,3.66,0,0,1-.67.41,3.13,3.13,0,0,1-.71.24,4.18,4.18,0,0,1-.82.07,2.68,2.68,0,0,1-1-.2,2.23,2.23,0,0,1-.79-.56,2.38,2.38,0,0,1-.5-.86A3.41,3.41,0,0,1,99,122.9a4.46,4.46,0,0,1,.12-1,4.62,4.62,0,0,1,.85-1.81,3.14,3.14,0,0,1,.7-.66,3.27,3.27,0,0,1,.85-.44,3.33,3.33,0,0,1,1-.15,2.4,2.4,0,0,1,.89.15,1.87,1.87,0,0,1,.63.39,1.39,1.39,0,0,1,.37.51,1.12,1.12,0,0,1,.12.55,1.77,1.77,0,0,1-.18.8,1.64,1.64,0,0,1-.65.66,4.72,4.72,0,0,1-1.27.5,14.83,14.83,0,0,1-2.07.34.19.19,0,0,0,0,.08v.09a1.83,1.83,0,0,0,.35,1.25,1.38,1.38,0,0,0,1.08.43,2,2,0,0,0,.75-.12,2.43,2.43,0,0,0,.51-.27l.38-.27a.54.54,0,0,1,.33-.12.33.33,0,0,1,.26.13Zm-1.93-4.55a1.5,1.5,0,0,0-.67.15,1.88,1.88,0,0,0-.56.41,2.59,2.59,0,0,0-.43.63,3.36,3.36,0,0,0-.28.79,10.39,10.39,0,0,0,1.45-.25,2.92,2.92,0,0,0,.84-.31,1,1,0,0,0,.4-.36.91.91,0,0,0,.1-.4.66.66,0,0,0,0-.23.62.62,0,0,0-.15-.21.93.93,0,0,0-.26-.15A1.15,1.15,0,0,0,102.45,119.8Z"/><path class="cls-2" d="M105.3,125.59l.85-6.68h.7a.51.51,0,0,1,.35.11.49.49,0,0,1,.12.36l-.06.94a3.64,3.64,0,0,1,1-1.12,2.05,2.05,0,0,1,1.17-.37,1.15,1.15,0,0,1,1,.44,2.05,2.05,0,0,1,.36,1.26,3.68,3.68,0,0,1,1.09-1.27,2.16,2.16,0,0,1,1.28-.4,1.32,1.32,0,0,1,1.23.66,3.09,3.09,0,0,1,.23,1.88l-.53,4.23h-1.38l.52-4.24a3.5,3.5,0,0,0,0-.61,1.22,1.22,0,0,0-.08-.43.5.5,0,0,0-.2-.25.7.7,0,0,0-.35-.08,1.16,1.16,0,0,0-.52.14,1.91,1.91,0,0,0-.49.39,3.61,3.61,0,0,0-.45.64,6.37,6.37,0,0,0-.36.86l-.44,3.56H109l.53-4.24a3.45,3.45,0,0,0,0-.61,1,1,0,0,0-.07-.42.41.41,0,0,0-.19-.25A.7.7,0,0,0,109,120a1.21,1.21,0,0,0-.55.14,2.11,2.11,0,0,0-.5.42,4.09,4.09,0,0,0-.44.67,5.68,5.68,0,0,0-.36.89l-.44,3.47Z"/><path class="cls-2" d="M118.18,125.77a2.8,2.8,0,0,1-1-.19,2.3,2.3,0,0,1-.79-.55,2.34,2.34,0,0,1-.52-.88,3.15,3.15,0,0,1-.18-1.18,4.41,4.41,0,0,1,.28-1.6,3.91,3.91,0,0,1,.75-1.29,3.42,3.42,0,0,1,1.1-.87,3,3,0,0,1,1.36-.31,2.8,2.8,0,0,1,1,.2,2.09,2.09,0,0,1,.79.55,2.43,2.43,0,0,1,.52.87,3.67,3.67,0,0,1,.18,1.19,4.32,4.32,0,0,1-.13,1.08,4.56,4.56,0,0,1-.35,1,3.8,3.8,0,0,1-.55.82,3.47,3.47,0,0,1-.7.63,3.21,3.21,0,0,1-.83.41A3.16,3.16,0,0,1,118.18,125.77Zm.13-1.1a1.42,1.42,0,0,0,.8-.24,2.12,2.12,0,0,0,.61-.65,3.57,3.57,0,0,0,.4-1,4.6,4.6,0,0,0,.14-1.13,2.07,2.07,0,0,0-.31-1.28A1.12,1.12,0,0,0,119,120a1.37,1.37,0,0,0-.8.24,2,2,0,0,0-.61.64,3.26,3.26,0,0,0-.39,1,4.22,4.22,0,0,0-.15,1.13C117.06,124.1,117.48,124.67,118.31,124.67Z"/><path class="cls-2" d="M126.86,120.23a.4.4,0,0,1-.13.13.33.33,0,0,1-.15,0,.51.51,0,0,1-.22-.07l-.26-.16a2.06,2.06,0,0,0-.36-.15,1.8,1.8,0,0,0-.5-.08,1.89,1.89,0,0,0-.5.07,1.52,1.52,0,0,0-.38.2,1,1,0,0,0-.24.29.86.86,0,0,0-.08.36.61.61,0,0,0,.11.36,1.08,1.08,0,0,0,.3.26,2.25,2.25,0,0,0,.44.21l.49.19a5.4,5.4,0,0,1,.49.23,2.24,2.24,0,0,1,.43.31,1.55,1.55,0,0,1,.3.44,1.4,1.4,0,0,1,.11.6,2.35,2.35,0,0,1-.19.91,2.47,2.47,0,0,1-.54.75,2.87,2.87,0,0,1-.85.51,3,3,0,0,1-1.1.18,2.66,2.66,0,0,1-1.15-.24,2.18,2.18,0,0,1-.81-.59l.35-.53a.36.36,0,0,1,.15-.15.33.33,0,0,1,.21-.06.35.35,0,0,1,.22.09l.27.2a1.81,1.81,0,0,0,.37.2,1.57,1.57,0,0,0,.58.09,1.42,1.42,0,0,0,.52-.08,1.07,1.07,0,0,0,.39-.22,1.27,1.27,0,0,0,.24-.33.93.93,0,0,0,.09-.4.67.67,0,0,0-.11-.39,1.15,1.15,0,0,0-.3-.28,3.45,3.45,0,0,0-.43-.2l-.49-.18a4.25,4.25,0,0,1-.49-.21,1.84,1.84,0,0,1-.43-.3,1.5,1.5,0,0,1-.3-.43,1.6,1.6,0,0,1-.11-.62,2.12,2.12,0,0,1,.18-.84,2.06,2.06,0,0,1,.49-.71,2.37,2.37,0,0,1,.79-.5,2.71,2.71,0,0,1,1.06-.19,2.82,2.82,0,0,1,1.09.22,2.49,2.49,0,0,1,.81.56Z"/><path class="cls-2" d="M135.08,120.28a.38.38,0,0,1-.12.13.27.27,0,0,1-.16,0,.35.35,0,0,1-.21-.07,2.18,2.18,0,0,0-.27-.15,2,2,0,0,0-.36-.16,1.47,1.47,0,0,0-.5-.07,1.49,1.49,0,0,0-.49.07,1,1,0,0,0-.38.19.73.73,0,0,0-.24.29.8.8,0,0,0-.09.36.57.57,0,0,0,.12.37,1.12,1.12,0,0,0,.3.26,2.89,2.89,0,0,0,.43.2l.49.19.49.23a2,2,0,0,1,.43.31,1.23,1.23,0,0,1,.3.44,1.28,1.28,0,0,1,.11.61,2.17,2.17,0,0,1-.19.9,2,2,0,0,1-.54.75,2.75,2.75,0,0,1-.85.51,3,3,0,0,1-2.24-.05,2.37,2.37,0,0,1-.82-.59l.35-.54a.54.54,0,0,1,.15-.15.36.36,0,0,1,.21,0,.37.37,0,0,1,.23.09l.26.19a1.54,1.54,0,0,0,.95.29,1.4,1.4,0,0,0,.52-.07,1.06,1.06,0,0,0,.39-.23.78.78,0,0,0,.24-.33.9.9,0,0,0,.09-.4.64.64,0,0,0-.11-.39,1,1,0,0,0-.3-.27,2.46,2.46,0,0,0-.43-.21l-.49-.17-.49-.22a2.09,2.09,0,0,1-.42-.29,1.28,1.28,0,0,1-.3-.43,1.32,1.32,0,0,1-.11-.62,2.14,2.14,0,0,1,.67-1.56,2.38,2.38,0,0,1,.78-.5,3,3,0,0,1,1.06-.18,2.7,2.7,0,0,1,1.1.21,2.59,2.59,0,0,1,.8.57Z"/><path class="cls-2" d="M138.48,125.9a2.79,2.79,0,0,1-1-.19,2.34,2.34,0,0,1-.8-.55,2.63,2.63,0,0,1-.52-.88,3.61,3.61,0,0,1-.18-1.18,4.68,4.68,0,0,1,.28-1.6,4.29,4.29,0,0,1,.75-1.29,3.57,3.57,0,0,1,1.11-.87,3,3,0,0,1,1.35-.3,2.56,2.56,0,0,1,1,.19,2.24,2.24,0,0,1,.8.55,2.63,2.63,0,0,1,.52.88,3.57,3.57,0,0,1,.18,1.18,5.5,5.5,0,0,1-.13,1.08,5,5,0,0,1-.36,1,4.15,4.15,0,0,1-.54.82,3.49,3.49,0,0,1-.71.63,3.06,3.06,0,0,1-.83.41A2.81,2.81,0,0,1,138.48,125.9Zm.13-1.1a1.26,1.26,0,0,0,.8-.24,2.15,2.15,0,0,0,.62-.65,3.26,3.26,0,0,0,.39-1,4.17,4.17,0,0,0,.15-1.13,2.08,2.08,0,0,0-.31-1.27,1.13,1.13,0,0,0-.94-.43,1.42,1.42,0,0,0-.8.24,2.2,2.2,0,0,0-.61.64,3.26,3.26,0,0,0-.39.95,4.68,4.68,0,0,0-.14,1.14C137.37,124.23,137.78,124.8,138.61,124.8Z"/><path class="cls-2" d="M144.7,120.69a3.88,3.88,0,0,1,1.17-1.21,2.33,2.33,0,0,1,1.32-.39,1.58,1.58,0,0,1,.74.17,1.41,1.41,0,0,1,.54.49,2.22,2.22,0,0,1,.28.8,3.89,3.89,0,0,1,0,1.08l-.53,4.24h-1.4l.53-4.24a1.8,1.8,0,0,0-.08-1,.65.65,0,0,0-.62-.33,1.34,1.34,0,0,0-.59.16,2.43,2.43,0,0,0-.59.46,4.17,4.17,0,0,0-.52.72,4.93,4.93,0,0,0-.41.93l-.38,3.32h-1.4l.84-6.67h.7a.46.46,0,0,1,.35.12.45.45,0,0,1,.12.35Z"/><path class="cls-2" d="M151.7,120.94a4.79,4.79,0,0,1,.56-.9,2.89,2.89,0,0,1,.62-.6,1.62,1.62,0,0,1,.67-.25,1.4,1.4,0,0,1,.69.12l-.26,1.34a1.33,1.33,0,0,0-1.46.21,3.94,3.94,0,0,0-1,2l-.38,3h-1.37l.85-6.68h.7a.51.51,0,0,1,.35.11.49.49,0,0,1,.12.36Z"/><path class="cls-2" d="M159.51,124.7a7.09,7.09,0,0,1-.67.6,4.83,4.83,0,0,1-.67.41,3.58,3.58,0,0,1-.72.24,4.14,4.14,0,0,1-.81.07,2.64,2.64,0,0,1-1-.2,2.36,2.36,0,0,1-.79-.56,2.34,2.34,0,0,1-.5-.87,3.15,3.15,0,0,1-.17-1.13,5.07,5.07,0,0,1,.11-1,4.94,4.94,0,0,1,.33-1,4.34,4.34,0,0,1,.53-.85,3.15,3.15,0,0,1,2.56-1.25,2.4,2.4,0,0,1,.89.15,2.16,2.16,0,0,1,.63.38,1.51,1.51,0,0,1,.37.52,1.4,1.4,0,0,1,.12.55,1.77,1.77,0,0,1-.18.8,1.7,1.7,0,0,1-.65.66,4.86,4.86,0,0,1-1.27.5,13.58,13.58,0,0,1-2.08.33v.17a1.84,1.84,0,0,0,.35,1.26,1.36,1.36,0,0,0,1.07.43,2.09,2.09,0,0,0,.76-.12,3,3,0,0,0,.51-.27l.38-.27a.54.54,0,0,1,.33-.12.33.33,0,0,1,.26.13Zm-1.93-4.54a1.57,1.57,0,0,0-.68.15,1.8,1.8,0,0,0-.55.41,2.26,2.26,0,0,0-.43.63,3.9,3.9,0,0,0-.29.79,12,12,0,0,0,1.46-.25,3.4,3.4,0,0,0,.84-.31.81.81,0,0,0,.5-.77.63.63,0,0,0-.05-.22.6.6,0,0,0-.14-.21.87.87,0,0,0-.27-.15A.91.91,0,0,0,157.58,120.16Z"/><path class="cls-2" d="M162.72,119.29l-.85,6.66h-1.38l.84-6.67Zm.43-2a.86.86,0,0,1-.08.36,1,1,0,0,1-.21.3,1.21,1.21,0,0,1-.3.2.8.8,0,0,1-.34.07.76.76,0,0,1-.33-.08,1,1,0,0,1-.28-.2,1.21,1.21,0,0,1-.2-.3.9.9,0,0,1,0-.72.93.93,0,0,1,.2-.3.84.84,0,0,1,.29-.2.8.8,0,0,1,.33-.08.89.89,0,0,1,.35.08,1,1,0,0,1,.29.21.93.93,0,0,1,.2.3A.86.86,0,0,1,163.15,117.28Z"/><path class="cls-2" d="M165.48,121a5.24,5.24,0,0,1,.56-.91,3.08,3.08,0,0,1,.62-.59,1.62,1.62,0,0,1,.67-.25,1.4,1.4,0,0,1,.69.12l-.26,1.34a1.32,1.32,0,0,0-1.46.21,3.94,3.94,0,0,0-1,2l-.38,3h-1.37l.85-6.68h.7a.51.51,0,0,1,.35.12.49.49,0,0,1,.12.36Z"/></svg>